{"title":"Pittsburgh_VS_Baltimore_Second_Quarter_1-15-2011_720p_TTL","uid":6106998,"size":868744350,"categoryP":"video","categoryS":"hd___tv_shows","magnet":"?xt=urn:btih:ace939d069a5f52463c921986f154fd481499d77&amp;dn=Pittsburgh_VS_Baltimore_Second_Quarter_1-15-2011_720p_TTL&amp;tr=udp%3A%2F%2Ftracker.openbittorrent.com%3A80&amp;tr=udp%3A%2F%2Fopen.demonii.com%3A1337&amp;tr=udp%3A%2F%2Ftracker.coppersurfer.tk%3A6969&amp;tr=udp%3A%2F%2Fexodus.desync.com%3A6969","seeders":0,"leechers":0,"uploader":"thetorrentlord","files":2,"time":1295202673,"description":"Pittsburgh_VS_Baltimore_Second_Quarter_1-15-2011_720p_TTL.avi\nFormat                           : AVI\nFormat/Info                      : Audio Video Interleave\nFile size                        : 828 MiB\nDuration                         : 28mn 29s\nOverall bit rate                 : 4 067 Kbps\nMovie name                       : Pittsburgh_VS_Baltimore_Second_Quarter_1-15-2011_720p_TTL.mpg\nDirector                         : created.with.SUPER(C).v2009.bld.35\nWriting application              : SUPER(C)   \n\nVideo\nID                               : 0\nFormat                           : MPEG-4 Visual\nFormat profile                   : Simple@L3\nFormat settings, BVOP            : No\nFormat settings, QPel            : No\nFormat settings, GMC             : No warppoints\nFormat settings, Matrix          : Default (H.263)\nCodec ID                         : XVID\nCodec ID/Hint                    : XviD\nDuration                         : 28mn 29s\nBit rate                         : 3 941 Kbps\nWidth                            : 1 280 pixels\nHeight                           : 720 pixels\nDisplay aspect ratio             : 16:9\nFrame rate                       : 29.970 fps\nColor space                      : YUV\nChroma subsampling               : 4:2:0\nBit depth                        : 8 bits\nScan type                        : Progressive\nBits/(Pixel*Frame)               : 0.143\nStream size                      : 803 MiB (97%)\nWriting library                  : XviD 1.1.2 (UTC 2006-11-01)\n\nAudio\nID                               : 1\nFormat                           : MPEG Audio\nFormat version                   : Version 1\nFormat profile                   : Layer 3\nMode                             : Joint stereo\nMode extension                   : MS Stereo\nCodec ID                         : 55\nCodec ID/Hint                    : MP3\nDuration                         : 28mn 29s\nBit rate mode                    : Constant\nBit rate                         : 112 Kbps\nChannel(s)                       : 2 channels\nSampling rate                    : 48.0 KHz\nStream size                      : 22.8 MiB (3%)\nAlignment                        : Aligned on interleaves\nInterleave, duration             : 24 ms (0.72 video frame)\nInterleave, preload duration     : 24 ms\n\n","torrent":{"xt":"urn:btih:ace939d069a5f52463c921986f154fd481499d77","amp;dn":"Pittsburgh_VS_Baltimore_Second_Quarter_1-15-2011_720p_TTL","amp;tr":["udp%3A%2F%2Ftracker.openbittorrent.com%3A80","udp%3A%2F%2Fopen.demonii.com%3A1337","udp%3A%2F%2Ftracker.coppersurfer.tk%3A6969","udp%3A%2F%2Fexodus.desync.com%3A6969"],"infoHash":"ace939d069a5f52463c921986f154fd481499d77","infoHashBuffer":{"type":"Buffer","data":[172,233,57,208,105,165,245,36,99,201,33,152,111,21,79,212,129,73,157,119]},"announce":[],"urlList":[]}}